<svg width="1024" height="1024" viewBox="0 0 1024 1024" fill="none" xmlns="http://www.w3.org/2000/svg">
<mask id="path-1-inside-1_628_3147" fill="white">
<path d="M424.982 126.453C460.329 126.453 488.982 155.108 488.982 190.454V833.546C488.982 868.892 460.329 897.546 424.982 897.546H149.077C117.141 897.546 90.6694 874.155 85.8584 843.57H64C28.6538 843.57 0 814.917 0 779.57V244.431C0 209.084 28.6538 180.431 64 180.431H85.8584C90.6689 149.846 117.141 126.453 149.077 126.453H424.982Z"/>
</mask>
<path d="M149.077 897.546L149.077 957.546H149.077V897.546ZM85.8584 843.57L145.13 834.247L137.158 783.57H85.8584V843.57ZM64 843.57L63.9999 903.57H64V843.57ZM64 180.431L64 120.431L64 120.431L64 180.431ZM85.8584 180.431V240.431H137.159L145.13 189.753L85.8584 180.431ZM424.982 126.453V186.453C427.19 186.453 428.982 188.244 428.982 190.454H488.982H548.982C548.982 121.972 493.467 66.4531 424.982 66.4531V126.453ZM488.982 190.454H428.982V833.546H488.982H548.982V190.454H488.982ZM488.982 833.546H428.982C428.982 835.755 427.192 837.546 424.982 837.546V897.546V957.546C493.466 957.546 548.982 902.029 548.982 833.546H488.982ZM424.982 897.546V837.546H149.077V897.546V957.546H424.982V897.546ZM149.077 897.546L149.077 837.546C148.034 837.546 147.217 837.225 146.486 836.594C145.682 835.901 145.257 835.055 145.13 834.247L85.8584 843.57L26.5872 852.894C35.9164 912.201 87.1443 957.546 149.077 957.546L149.077 897.546ZM85.8584 843.57V783.57H64V843.57V903.57H85.8584V843.57ZM64 843.57L64.0001 783.57C61.7908 783.57 60 781.779 60 779.57H0H-60C-60 848.054 -4.48323 903.57 63.9999 903.57L64 843.57ZM0 779.57H60V244.431H0H-60V779.57H0ZM0 244.431H60C60 242.222 61.7909 240.431 64 240.431L64 180.431L64 120.431C-4.48331 120.431 -60 175.947 -60 244.431H0ZM64 180.431V240.431H85.8584V180.431V120.431H64V180.431ZM85.8584 180.431L145.13 189.753C145.257 188.945 145.683 188.098 146.487 187.404C147.218 186.774 148.034 186.453 149.077 186.453V126.453V66.4531C87.1423 66.4531 35.9151 111.801 26.5871 171.108L85.8584 180.431ZM149.077 126.453V186.453H424.982V126.453V66.4531H149.077V126.453Z" fill="#242424" mask="url(#path-1-inside-1_628_3147)"/>
<mask id="path-3-inside-2_628_3147" fill="white">
<path d="M874.923 126.454C906.859 126.454 933.331 149.846 938.142 180.431H960C995.346 180.431 1024 209.085 1024 244.431V779.571C1024 814.917 995.346 843.571 960 843.571H938.142C933.331 874.156 906.859 897.547 874.923 897.547H599.018C563.671 897.547 535.018 868.893 535.018 833.547V190.455C535.018 155.109 563.671 126.454 599.018 126.454H874.923Z"/>
</mask>
<path d="M938.142 180.431L878.87 189.754L886.842 240.431H938.142V180.431ZM960 180.431L960 120.431H960V180.431ZM1024 244.431L1084 244.431L1084 244.43L1024 244.431ZM1024 779.571L1084 779.572V779.571H1024ZM960 843.571L960 903.571L960 903.571L960 843.571ZM938.142 843.571V783.571H886.842L878.87 834.248L938.142 843.571ZM599.018 897.547L599.018 957.547H599.018V897.547ZM874.923 126.454V186.454C875.966 186.454 876.782 186.775 877.513 187.405C878.317 188.099 878.743 188.946 878.87 189.754L938.142 180.431L997.413 171.107C988.084 111.801 936.857 66.4541 874.923 66.4541V126.454ZM938.142 180.431V240.431H960V180.431V120.431H938.142V180.431ZM960 180.431L960 240.431C962.209 240.431 964 242.222 964 244.431L1024 244.431L1084 244.43C1084 175.948 1028.48 120.431 960 120.431L960 180.431ZM1024 244.431H964V779.571H1024H1084V244.431H1024ZM1024 779.571L964 779.571C964 781.78 962.209 783.571 960 783.571L960 843.571L960 903.571C1028.48 903.571 1084 848.054 1084 779.572L1024 779.571ZM960 843.571V783.571H938.142V843.571V903.571H960V843.571ZM938.142 843.571L878.87 834.248C878.743 835.056 878.318 835.902 877.514 836.595C876.783 837.226 875.966 837.547 874.923 837.547V897.547V957.547C936.856 957.547 988.084 912.202 997.413 852.895L938.142 843.571ZM874.923 897.547V837.547H599.018V897.547V957.547H874.923V897.547ZM599.018 897.547L599.018 837.547C596.808 837.547 595.018 835.756 595.018 833.547H535.018H475.018C475.018 902.03 530.534 957.547 599.018 957.547L599.018 897.547ZM535.018 833.547H595.018V190.455H535.018H475.018V833.547H535.018ZM535.018 190.455H595.018C595.018 188.245 596.81 186.454 599.018 186.454V126.454V66.4541C530.533 66.4541 475.018 121.973 475.018 190.455H535.018ZM599.018 126.454V186.454H874.923V126.454V66.4541H599.018V126.454Z" fill="#242424" mask="url(#path-3-inside-2_628_3147)"/>
</svg>
