<svg width="52" height="46" viewBox="0 0 52 46" fill="none" xmlns="http://www.w3.org/2000/svg">
<g clip-path="url(#clip0_610_4)">
<rect x="37.3906" y="1.71191" width="13" height="43" rx="6.5" stroke="#FFFCFC" stroke-width="2"/>
<mask id="path-2-inside-1_610_4" fill="white">
<path d="M38.4922 2.59106C41.421 -0.337706 46.1697 -0.337556 49.0986 2.59106C52.0275 5.51997 52.0275 10.2686 49.0986 13.1975L31.4209 30.8752C29.9257 32.3705 27.9566 33.1 25.9971 33.0686C24.0377 33.0998 22.0683 32.3703 20.5732 30.8752L2.89551 13.1975C-0.033102 10.2686 -0.0332346 5.51991 2.89551 2.59106C5.82434 -0.33777 10.573 -0.337576 13.502 2.59106L25.9971 15.0862L38.4922 2.59106Z"/>
</mask>
<path d="M38.4922 2.59106L37.078 1.17683L37.078 1.17685L38.4922 2.59106ZM49.0986 2.59106L50.5128 1.17685L50.5128 1.17678L49.0986 2.59106ZM49.0986 13.1975L50.5128 14.6117L50.5129 14.6117L49.0986 13.1975ZM31.4209 30.8752L32.8351 32.2895L32.8351 32.2895L31.4209 30.8752ZM25.9971 33.0686L26.0291 31.0689L25.9972 31.0683L25.9652 31.0689L25.9971 33.0686ZM20.5732 30.8752L19.159 32.2895L20.5732 30.8752ZM2.89551 13.1975L1.48122 14.6116L1.48129 14.6117L2.89551 13.1975ZM2.89551 2.59106L1.48129 1.17685L1.48127 1.17688L2.89551 2.59106ZM13.502 2.59106L14.9162 1.17685L14.9161 1.17677L13.502 2.59106ZM25.9971 15.0862L24.5829 16.5004L25.9971 17.9146L27.4113 16.5004L25.9971 15.0862ZM38.4922 2.59106L39.9064 4.00529C42.0541 1.85761 45.5365 1.85762 47.6845 4.00535L49.0986 2.59106L50.5128 1.17678C46.8029 -2.53273 40.7879 -2.53302 37.078 1.17683L38.4922 2.59106ZM49.0986 2.59106L47.6844 4.00528C49.8323 6.15312 49.8323 9.6354 47.6844 11.7833L49.0986 13.1975L50.5129 14.6117C54.2227 10.9017 54.2228 4.88683 50.5128 1.17685L49.0986 2.59106ZM49.0986 13.1975L47.6844 11.7833L30.0067 29.461L31.4209 30.8752L32.8351 32.2895L50.5128 14.6117L49.0986 13.1975ZM31.4209 30.8752L30.0067 29.461C28.911 30.5567 27.4711 31.092 26.0291 31.0689L25.9971 33.0686L25.965 35.0683C28.4421 35.108 30.9404 34.1842 32.8351 32.2895L31.4209 30.8752ZM25.9971 33.0686L25.9652 31.0689C24.5232 31.0919 23.0829 30.5565 21.9875 29.461L20.5732 30.8752L19.159 32.2895C21.0537 34.1841 23.5523 35.1078 26.029 35.0683L25.9971 33.0686ZM20.5732 30.8752L21.9875 29.461L4.30972 11.7833L2.89551 13.1975L1.48129 14.6117L19.159 32.2895L20.5732 30.8752ZM2.89551 13.1975L4.3098 11.7834C2.16208 9.63543 2.16207 6.153 4.30975 4.00525L2.89551 2.59106L1.48127 1.17688C-2.22854 4.88681 -2.22829 10.9017 1.48122 14.6116L2.89551 13.1975ZM2.89551 2.59106L4.30972 4.00528C6.45743 1.85757 9.93982 1.85758 12.0878 4.00535L13.502 2.59106L14.9161 1.17677C11.2062 -2.53274 5.19125 -2.53311 1.48129 1.17685L2.89551 2.59106ZM13.502 2.59106L12.0877 4.00528L24.5829 16.5004L25.9971 15.0862L27.4113 13.672L14.9162 1.17685L13.502 2.59106ZM25.9971 15.0862L27.4113 16.5004L39.9064 4.00528L38.4922 2.59106L37.078 1.17685L24.5829 13.672L25.9971 15.0862Z" fill="#FFFCFC" mask="url(#path-2-inside-1_610_4)"/>
<rect x="1.69922" y="1.71191" width="13" height="43" rx="6.5" stroke="#FFFCFC" stroke-width="2"/>
</g>
<defs>
<clipPath id="clip0_610_4">
<rect width="52" height="46" fill="white"/>
</clipPath>
</defs>
</svg>
