<svg width="52" height="46" viewBox="0 0 52 46" fill="none" xmlns="http://www.w3.org/2000/svg">
<g clip-path="url(#clip0_608_4)">
<rect x="1.44922" y="1.46191" width="13.5" height="43.5" rx="6.75" fill="#EE66A6" stroke="#FFFCFC" stroke-width="1.5"/>
<rect x="37.1406" y="1.46191" width="13.5" height="43.5" rx="6.75" fill="#640D5F" stroke="#FFFCFC" stroke-width="1.5"/>
<mask id="path-3-inside-1_608_4" fill="white">
<path d="M38.4925 2.59172C41.4214 -0.337213 46.17 -0.337213 49.0989 2.59172C52.0278 5.52066 52.0278 10.2693 49.0989 13.1982L31.4212 30.8759C29.9261 32.371 27.9568 33.0996 25.9974 33.0683C24.038 33.0996 22.0687 32.3709 20.5736 30.8759L2.89582 13.1982C-0.0330476 10.2693 -0.0329142 5.52067 2.89582 2.59172C5.82475 -0.337213 10.5733 -0.337213 13.5023 2.59172L25.9974 15.0868L38.4925 2.59172Z"/>
</mask>
<path d="M38.4925 2.59172C41.4214 -0.337213 46.17 -0.337213 49.0989 2.59172C52.0278 5.52066 52.0278 10.2693 49.0989 13.1982L31.4212 30.8759C29.9261 32.371 27.9568 33.0996 25.9974 33.0683C24.038 33.0996 22.0687 32.3709 20.5736 30.8759L2.89582 13.1982C-0.0330476 10.2693 -0.0329142 5.52067 2.89582 2.59172C5.82475 -0.337213 10.5733 -0.337213 13.5023 2.59172L25.9974 15.0868L38.4925 2.59172Z" fill="url(#paint0_linear_608_4)"/>
<path d="M49.0989 2.59172L50.1596 1.53108L50.1596 1.53106L49.0989 2.59172ZM31.4212 30.8759L32.4818 31.9366L32.4819 31.9366L31.4212 30.8759ZM25.9974 33.0683L26.0214 31.5685L25.9974 31.5681L25.9734 31.5685L25.9974 33.0683ZM20.5736 30.8759L19.5129 31.9366L19.5129 31.9366L20.5736 30.8759ZM2.89582 2.59172L1.83516 1.53106L1.83512 1.5311L2.89582 2.59172ZM25.9974 15.0868L24.9367 16.1475L25.9974 17.2082L27.058 16.1475L25.9974 15.0868ZM38.4925 2.59172L39.5532 3.65238C41.8963 1.30923 45.6951 1.30923 48.0383 3.65238L49.0989 2.59172L50.1596 1.53106C46.6449 -1.98366 40.9466 -1.98366 37.4318 1.53106L38.4925 2.59172ZM49.0989 2.59172L48.0383 3.65235C50.3813 5.99554 50.3814 9.79442 48.0383 12.1375L49.0989 13.1982L50.1596 14.2588C53.6743 10.7441 53.6742 5.04578 50.1596 1.53108L49.0989 2.59172ZM49.0989 13.1982L48.0383 12.1375L30.3605 29.8152L31.4212 30.8759L32.4819 31.9366L50.1596 14.2588L49.0989 13.1982ZM31.4212 30.8759L30.3606 29.8152C29.1654 31.0103 27.5931 31.5936 26.0214 31.5685L25.9974 33.0683L25.9734 34.5681C28.3204 34.6056 30.6867 33.7316 32.4818 31.9366L31.4212 30.8759ZM25.9974 33.0683L25.9734 31.5685C24.4017 31.5936 22.8293 31.0103 21.6342 29.8152L20.5736 30.8759L19.5129 31.9366C21.308 33.7316 23.6744 34.6056 26.0214 34.5681L25.9974 33.0683ZM20.5736 30.8759L21.6342 29.8152L3.95648 12.1375L2.89582 13.1982L1.83516 14.2588L19.5129 31.9366L20.5736 30.8759ZM2.89582 13.1982L3.95648 12.1375C1.61344 9.79446 1.61348 5.99555 3.95652 3.65234L2.89582 2.59172L1.83512 1.5311C-1.67931 5.04578 -1.67953 10.7441 1.83516 14.2588L2.89582 13.1982ZM2.89582 2.59172L3.95648 3.65238C6.29962 1.30923 10.0985 1.30923 12.4416 3.65238L13.5023 2.59172L14.5629 1.53106C11.0482 -1.98366 5.34988 -1.98366 1.83516 1.53106L2.89582 2.59172ZM13.5023 2.59172L12.4416 3.65238L24.9367 16.1475L25.9974 15.0868L27.058 14.0262L14.5629 1.53106L13.5023 2.59172ZM25.9974 15.0868L27.058 16.1475L39.5532 3.65238L38.4925 2.59172L37.4318 1.53106L24.9367 14.0262L25.9974 15.0868Z" fill="#FFFCFC" mask="url(#path-3-inside-1_608_4)"/>
</g>
<defs>
<linearGradient id="paint0_linear_608_4" x1="0.699219" y1="16.7321" x2="51.2956" y2="16.7321" gradientUnits="userSpaceOnUse">
<stop stop-color="#FFEB55"/>
<stop offset="1" stop-color="#D91656"/>
</linearGradient>
<clipPath id="clip0_608_4">
<rect width="52" height="46" fill="white"/>
</clipPath>
</defs>
</svg>
